<svg class="seo-mob-nav-tray-action-mobile-svg" width="36px" height="36px" viewBox="0 0 36 36" version="1.1" xmlns="http://www.w3.org/2000/svg" xmlns:xlink="http://www.w3.org/1999/xlink">
                    <title>open-rightmove-assistant</title>
                    <g id="Current-designs-v2" stroke="none" stroke-width="1" fill="none" fill-rule="evenodd">
                        <g id="Menu" transform="translate(-76.000000, -61.000000)">
                            <g id="log_in" transform="translate(76.000000, 61.000000)">
                                <path d="M18.5,18.5 C16.4289322,18.5 14.75,16.8210678 14.75,14.75 C14.75,12.6789322 16.4289322,11 18.5,11 C20.5710678,11 22.25,12.6789322 22.25,14.75 C22.25,16.8210678 20.5710678,18.5 18.5,18.5 Z M17.15,19.25 L19.85,19.25 C21.589697,19.25 23,20.761039 23,22.625 L23,24.0714286 C23,25.1365492 22.1941125,26 21.2,26 L15.8,26 C14.8058875,26 14,25.1365492 14,24.0714286 L14,22.625 C14,20.761039 15.410303,19.25 17.15,19.25 Z" id="stroke" fill="#262637"></path>
                            </g>
                        </g>
                    </g>
                </svg>