<svg width="26" height="46" viewBox="0 0 26 46" fill="none" xmlns="http://www.w3.org/2000/svg"><mask id="path-1-inside-1_1261_1034" fill="white"><rect x="0.0625" y="3.87012" width="25.875" height="38.5547" rx="1"></rect></mask><rect x="0.0625" y="3.87012" width="25.875" height="38.5547" rx="1" fill="#00DEB6" stroke="#000433" stroke-width="4" mask="url(#path-1-inside-1_1261_1034)"></rect><mask id="path-2-inside-2_1261_1034" fill="white"><rect x="5.1416" y="7.72559" width="7.07006" height="8.44185" rx="1"></rect></mask><rect x="5.1416" y="7.72559" width="7.07006" height="8.44185" rx="1" fill="white" stroke="#000433" stroke-width="4" mask="url(#path-2-inside-2_1261_1034)"></rect><mask id="path-3-inside-3_1261_1034" fill="white"><rect x="5.1416" y="18.167" width="7.07006" height="8.44185" rx="1"></rect></mask><rect x="5.1416" y="18.167" width="7.07006" height="8.44185" rx="1" fill="white" stroke="#000433" stroke-width="4" mask="url(#path-3-inside-3_1261_1034)"></rect><mask id="path-4-inside-4_1261_1034" fill="white"><rect x="5.1416" y="28.6079" width="7.07006" height="8.44185" rx="1"></rect></mask><rect x="5.1416" y="28.6079" width="7.07006" height="8.44185" rx="1" fill="white" stroke="#000433" stroke-width="4" mask="url(#path-4-inside-4_1261_1034)"></rect><mask id="path-5-inside-5_1261_1034" fill="white"><rect x="14.0693" y="7.72559" width="7.07006" height="8.44185" rx="1"></rect></mask><rect x="14.0693" y="7.72559" width="7.07006" height="8.44185" rx="1" fill="white" stroke="#000433" stroke-width="4" mask="url(#path-5-inside-5_1261_1034)"></rect><mask id="path-6-inside-6_1261_1034" fill="white"><rect x="14.0693" y="18.167" width="7.07006" height="8.44185" rx="1"></rect></mask><rect x="14.0693" y="18.167" width="7.07006" height="8.44185" rx="1" fill="white" stroke="#000433" stroke-width="4" mask="url(#path-6-inside-6_1261_1034)"></rect><mask id="path-7-inside-7_1261_1034" fill="white"><rect x="14.0693" y="28.6079" width="7.07006" height="8.44185" rx="1"></rect></mask><rect x="14.0693" y="28.6079" width="7.07006" height="8.44185" rx="1" fill="white" stroke="#000433" stroke-width="4" mask="url(#path-7-inside-7_1261_1034)"></rect><mask id="path-8-inside-8_1261_1034" fill="white"><rect x="3.85938" y="0.174805" width="18.5625" height="5.56463" rx="1"></rect></mask><rect x="3.85938" y="0.174805" width="18.5625" height="5.56463" rx="1" fill="#D9D9D9" stroke="#000433" stroke-width="4" mask="url(#path-8-inside-8_1261_1034)"></rect></svg>