<svg width="28" height="42" viewBox="0 0 28 42" fill="none" xmlns="http://www.w3.org/2000/svg"><g clip-path="url(#clip0_1158_62703)"><path d="M8.7085 28.0554V38.7154L13.8085 40.8854L19.5385 37.8854V28.0554C19.5385 28.0554 14.5285 30.5954 8.7085 28.0554Z" fill="white"></path><path d="M20.438 28.4554C23.398 22.4754 27.098 17.5554 26.678 12.0354C26.228 6.11539 20.758 1.32538 14.438 1.28538C7.57805 1.24538 1.99805 6.46538 1.99805 12.9054C1.99805 18.2854 5.14805 23.0254 7.64805 27.9854C7.84805 28.3754 12.578 29.7754 14.008 29.8154C15.638 29.8554 20.378 28.5654 20.428 28.4654L20.438 28.4554Z" fill="#3CE2BE"></path><path d="M27.6581 12.8654C27.6281 12.6854 27.5581 12.4754 27.6081 12.2954C27.7581 11.8754 27.6581 11.4554 27.6081 11.0254C27.6081 10.9154 27.5881 10.7754 27.5281 10.6954C27.3681 10.4154 27.4181 10.0954 27.2981 9.81538C27.3481 9.53538 27.2381 9.27538 27.1381 9.02538C26.9081 8.30538 26.5881 7.61538 26.2181 6.95538C26.0681 6.68538 25.9081 6.42538 25.6781 6.20538C25.5681 6.10538 25.4681 5.97538 25.4081 5.84538C25.3081 5.62538 25.3181 5.58538 25.1981 5.42538L25.1481 5.36538C25.0281 5.21538 25.0481 5.27538 24.8981 5.18538C24.8081 5.02538 24.7181 5.08538 24.6681 4.93538C24.6181 4.78538 24.5281 4.65538 24.4281 4.54538C24.3481 4.44538 24.2381 4.36538 24.1381 4.30538C23.8981 4.15538 23.7481 3.94538 23.5581 3.76538C23.4581 3.65538 23.3581 3.52538 23.2381 3.44538C22.9981 3.30538 22.8081 3.12538 22.5981 2.95538C22.2581 2.71538 21.9281 2.45538 21.5181 2.31538C21.3381 2.26538 21.1281 2.21538 21.0081 2.08538C20.7281 1.75538 20.3181 1.62538 19.9381 1.44538C19.8381 1.39538 19.7281 1.33538 19.6181 1.34538C19.2981 1.34538 19.0681 1.11538 18.7681 1.07538C18.5581 0.895381 18.2981 0.845381 18.0281 0.775381L16.9481 0.515381C16.5781 0.465381 16.2081 0.405381 15.8381 0.355381C15.5381 0.315381 15.2281 0.305381 14.9281 0.355381C14.7781 0.375381 14.6181 0.375381 14.4781 0.335381C14.2381 0.295381 14.2181 0.265381 14.0181 0.265381H13.9381C13.7481 0.285381 13.7981 0.295381 13.6481 0.355381C13.4681 0.325381 13.4581 0.425381 13.3081 0.375381C13.1581 0.315381 13.0081 0.305381 12.8581 0.335381C12.7281 0.355381 12.6081 0.385381 12.4881 0.425381C12.2281 0.525381 11.9681 0.495381 11.7081 0.535381C11.5581 0.565381 11.3981 0.555381 11.2581 0.605381C10.9981 0.695381 10.7381 0.735381 10.4781 0.795381C10.0881 0.935381 9.66811 1.00538 9.30811 1.24538C9.15811 1.35538 8.98811 1.48538 8.80811 1.50538C8.36811 1.52538 8.00811 1.75538 7.63811 1.94538C7.53811 1.99538 7.41811 2.04538 7.35811 2.13538C7.16811 2.39538 6.82811 2.41538 6.61811 2.63538C6.33811 2.68538 6.14811 2.87538 5.92811 3.02538L5.05811 3.73538C4.77811 3.98538 4.51811 4.25538 4.24811 4.51538C4.01811 4.71538 3.83811 4.97538 3.69811 5.25538C3.62811 5.38538 3.52811 5.51538 3.40811 5.60538C3.21811 5.76538 3.18811 5.77538 3.07811 5.93538L3.03811 5.99538C2.93811 6.15538 2.97811 6.12538 2.92811 6.28538C2.78811 6.41538 2.87811 6.48538 2.74811 6.57538C2.60811 6.66538 2.52811 6.79538 2.45811 6.92538C2.39811 7.03538 2.34811 7.16538 2.31811 7.28538C2.23811 7.55538 2.06811 7.75538 1.96811 8.00538C1.89811 8.14538 1.80811 8.27538 1.76811 8.41538C1.68811 8.68538 1.56811 8.92538 1.50811 9.18538C1.40811 9.59538 1.20811 9.99538 1.26811 10.4354C1.28811 10.6254 1.29811 10.8454 1.21811 11.0054C0.978105 11.3954 1.06811 11.8354 1.00811 12.2554C0.998105 12.3654 0.978105 12.4954 1.02811 12.5954C1.17811 12.8854 1.02811 13.1854 1.09811 13.4854C0.998105 13.7454 1.08811 14.0054 1.10811 14.2754C1.17811 15.0054 1.33811 15.7254 1.50811 16.4454C1.56811 16.7454 1.66811 17.0154 1.81811 17.2854C1.88811 17.4154 1.92811 17.5654 1.94811 17.7054C1.97811 17.9354 1.94811 17.9754 2.01811 18.1554L2.03811 18.2254C2.10811 18.3954 2.10811 18.3454 2.20811 18.4754C2.22811 18.6554 2.33811 18.6254 2.33811 18.7754C2.33811 18.9254 2.36811 19.0754 2.41811 19.2054C2.46811 19.3154 2.52811 19.4254 2.58811 19.5254C2.74811 19.7454 2.79811 19.9854 2.89811 20.2254C2.94811 20.3654 2.96811 20.5154 3.04811 20.6354C3.18811 20.8554 3.27811 21.0954 3.37811 21.3254C3.55811 21.6754 3.68811 22.0554 3.96811 22.3554C4.08811 22.4854 4.22811 22.6354 4.24811 22.8054C4.28811 23.2254 4.53811 23.5254 4.70811 23.8854C4.74811 23.9854 4.79811 24.0954 4.88811 24.1454C5.14811 24.3254 5.13811 24.6454 5.32811 24.8554C5.33811 25.1154 5.49811 25.3054 5.62811 25.5354C5.94811 26.1354 6.26811 26.7454 6.59811 27.3454L6.75811 27.6554C6.96811 27.9054 7.27811 28.1654 7.56811 28.2654C7.42811 28.5954 7.35811 28.9554 7.30811 29.2954V29.6354C7.30811 29.7554 7.31811 29.7954 7.33811 29.8354C7.23811 29.7954 7.14811 29.7554 7.09811 29.7554C7.06811 29.7554 6.97811 29.8054 6.89811 29.8354C6.6181 29.9354 6.33811 29.8954 6.03811 29.8454C5.87811 29.8054 5.75811 29.8854 5.67811 30.1154C5.58811 30.4254 5.72811 30.8754 5.93811 31.1354C6.14811 31.4254 6.40811 31.6254 6.64811 31.7854C6.75811 31.8354 6.87811 31.8954 6.98811 31.9254C7.20811 31.9954 7.15811 31.9654 7.34811 31.9754H7.36811C7.36811 32.0554 7.35811 32.1354 7.35811 32.2154C7.35811 32.3954 7.30811 32.5654 7.32811 32.7354C7.34811 32.9354 7.34811 33.1254 7.33811 33.3254C7.23811 33.2854 7.15811 33.2554 7.10811 33.2454C7.0781 33.2454 6.98811 33.2954 6.90811 33.3254C6.62811 33.4254 6.34811 33.3854 6.04811 33.3354C5.88811 33.2954 5.76811 33.3754 5.68811 33.6054C5.5981 33.9154 5.73811 34.3654 5.94811 34.6254C6.15811 34.9154 6.41811 35.1154 6.65811 35.2754C6.76811 35.3254 6.88811 35.3854 6.99811 35.4154C7.21811 35.4854 7.16811 35.4554 7.35811 35.4654C7.39811 35.4854 7.43811 35.5054 7.46811 35.5054C7.46811 35.5854 7.46811 35.6754 7.45811 35.7454C7.29811 36.2154 7.37811 36.6954 7.34811 37.1754C7.34811 37.2354 7.34811 37.3054 7.34811 37.3754C7.34811 37.4754 7.35811 37.6254 7.38811 37.7154C7.41811 37.8854 7.43811 38.0354 7.49811 38.1654L7.55811 38.3754V38.4254L7.57811 38.4554L7.62811 38.4254L7.66811 38.5454C7.74811 38.8454 8.07811 38.9754 8.36811 39.0954C8.47811 39.1654 8.58811 39.2254 8.70811 39.2854C8.8281 39.3454 8.85811 39.3554 8.94811 39.3854C9.08811 39.4354 9.23811 39.4754 9.37811 39.5254C10.1381 39.8054 10.8681 40.0954 11.4681 40.5154C11.7181 40.6854 11.9181 40.8654 12.1681 40.9954C12.2981 41.0954 12.5581 41.3354 12.7781 41.4854C13.1781 41.7354 13.2481 41.7954 13.6681 41.8454H13.8381C14.2481 41.8154 14.1481 41.8154 14.4581 41.6854C14.8181 41.5954 14.7981 41.4754 15.0581 41.3754C15.3081 41.2754 15.5781 41.0354 15.6281 40.9954C15.7081 40.9154 15.7781 40.8254 15.8581 40.7354C16.0181 40.5254 16.2581 40.4254 16.4881 40.3054C16.6181 40.2354 16.7781 40.1954 16.8981 40.1154C17.1281 39.9554 17.3981 39.8754 17.6581 39.7654C18.0881 39.5854 18.4781 39.5154 18.9981 39.2154C19.3081 39.0454 19.7181 38.8454 19.9481 38.6154C20.2381 38.4054 20.3081 38.0654 20.3181 37.6854C20.3881 37.7054 20.4581 37.7254 20.5081 37.7354C20.5581 37.7454 20.6281 37.6854 20.7081 37.6254C20.9181 37.4554 21.2281 37.3554 21.5181 37.4554C21.6681 37.5254 21.8281 37.4154 21.8381 37.0954C21.8181 36.6754 21.5881 36.3654 21.3781 36.1454C21.1581 35.9254 20.9181 35.7654 20.6881 35.6354L20.3681 35.5154L20.2581 35.4854C20.2581 35.4154 20.2581 35.3354 20.2581 35.2654C20.3781 34.9754 20.3281 34.6654 20.3281 34.3554C20.3281 34.2954 20.3281 34.2454 20.3281 34.1854C20.3981 34.2054 20.4681 34.2254 20.5181 34.2354C20.5681 34.2454 20.6381 34.1854 20.7181 34.1254C20.9281 33.9554 21.2381 33.8554 21.5281 33.9554C21.6781 34.0254 21.8381 33.9154 21.8481 33.5954C21.8281 33.1754 21.5981 32.8654 21.3881 32.6454C21.1681 32.4254 20.9281 32.2654 20.6981 32.1354L20.3781 32.0154H20.3381C20.3381 31.9254 20.3381 31.8554 20.3381 31.7754C20.3381 31.4254 20.3381 31.0754 20.2681 30.7254C20.2481 30.5554 20.2381 30.3754 20.2681 30.2054C20.3181 29.9354 20.3481 29.9054 20.3481 29.6754V29.2354C20.3481 29.0454 20.3181 28.8554 20.2881 28.6654C20.6581 28.5954 20.7381 28.6354 20.9881 28.4054L21.0881 28.3154L19.7381 26.7554H19.7081C19.6481 26.7854 19.5881 26.8054 19.5281 26.8254C19.4081 26.8654 19.2981 26.9054 19.1881 26.9454C18.9681 27.0254 18.7281 27.0954 18.3181 27.1954C18.0481 27.2654 17.7781 27.3654 17.4881 27.3554V27.3254L17.5281 27.0654C17.6481 26.1854 17.5981 26.0154 17.7481 24.9954C17.7981 24.6254 17.7881 24.2354 17.9481 23.8954C17.9581 23.8754 17.9581 23.8454 17.9681 23.8254C17.9681 23.7854 17.9681 23.7454 17.9681 23.7154C17.9081 23.2354 18.0981 22.7654 18.0181 22.2954C17.9981 22.1954 18.0481 22.0854 18.0881 21.9954C18.2281 21.6654 18.2981 21.3254 18.2981 20.9754C18.2981 20.8554 18.3281 20.7254 18.3381 20.6054C18.3881 20.3254 18.4681 20.0354 18.3981 19.7454C18.3881 19.6654 18.3881 19.5754 18.4181 19.5054C18.5581 19.1954 18.5581 18.8554 18.6281 18.5354C18.6481 18.4754 18.6581 18.3954 18.6281 18.3554C18.5181 18.1454 18.5981 17.9654 18.6581 17.7554C18.7581 17.4254 18.8181 17.0654 18.7681 16.7054C18.7381 16.4754 18.7981 16.2554 18.8581 16.0354C18.9681 15.6854 19.0881 15.3154 19.1181 14.9454C19.1881 14.0354 19.2081 13.9254 19.2381 13.8554C19.2981 13.7054 19.3181 13.5554 19.3181 13.5554L19.3481 13.2954C19.4081 12.8554 19.4181 12.5954 19.4481 12.3154C19.4481 12.2454 19.4581 12.1754 19.4681 12.0954V11.9654C19.4881 11.8854 19.4981 11.8054 19.4881 11.7254C19.4781 11.3654 19.3981 11.0654 19.2181 10.6754C18.9281 10.1254 18.4581 9.79538 18.0581 9.45538C18.0381 9.43538 18.0081 9.41538 17.9681 9.39538C17.9181 9.37538 17.8681 9.35538 17.8181 9.34538C17.4981 9.26538 17.1881 9.17538 16.8681 9.12538C16.5581 9.07538 16.2081 9.07538 16.0181 9.15538C15.9281 9.18538 15.8081 9.15538 15.7081 9.12538C15.3681 9.03538 15.0181 9.00538 14.6681 9.05538C14.5481 9.07538 14.4181 9.05538 14.2981 9.05538C14.0081 9.03538 13.7181 9.00538 13.4381 9.10538C13.3681 9.12538 13.2681 9.13538 13.1981 9.10538C12.8681 9.00538 12.5381 9.05538 12.2081 9.02538C12.1381 9.02538 12.0681 9.00538 12.0281 9.04538C11.8581 9.18538 11.5981 9.12538 11.3081 9.13538C10.8481 9.13538 10.3481 9.28538 9.97811 9.62538C9.73811 9.83538 9.48811 10.0054 9.22811 10.2554C8.83811 10.6454 8.45811 11.1954 8.54811 11.9854C8.76811 12.9654 8.76811 13.0154 8.76811 13.1054C8.75811 13.2654 8.77811 13.4154 8.77811 13.4154L8.81811 13.6754C8.96811 14.5454 9.06811 14.7054 9.22811 15.7154C9.28811 16.0854 9.40811 16.4454 9.36811 16.8254C9.36811 16.8454 9.36811 16.8754 9.36811 16.8954C9.36811 16.9354 9.38811 16.9654 9.40811 17.0054C9.60811 17.4454 9.56811 17.9554 9.78811 18.3754C9.83811 18.4654 9.82811 18.5854 9.80811 18.6854C9.77811 19.0454 9.80811 19.3854 9.90811 19.7254C9.94811 19.8454 9.95811 19.9754 9.97811 20.0954C10.0081 20.3854 10.0281 20.6754 10.1681 20.9354C10.2081 21.0054 10.2281 21.0954 10.2181 21.1754C10.1781 21.5154 10.2781 21.8354 10.2981 22.1654C10.2981 22.2354 10.2981 22.3054 10.3481 22.3354C10.5181 22.5054 10.4981 22.6954 10.4981 22.9154C10.4981 23.2654 10.5481 23.6254 10.7081 23.9454C10.7981 24.1554 10.8181 24.3854 10.8181 24.6154C10.8181 24.9854 10.8181 25.3754 10.8881 25.7354C11.0881 26.6254 11.0981 26.7354 11.0981 26.8154C11.0881 26.9754 11.1081 27.1254 11.1081 27.1254L11.1581 27.4454C10.8981 27.3154 10.6281 27.1754 10.3481 27.1054C9.60811 26.9354 9.52811 26.8954 9.47811 26.8654C9.36811 26.7854 9.25811 26.7454 9.25811 26.7454L9.05811 26.6754C8.81811 26.5954 8.64811 26.5354 8.48811 26.4854C8.38811 26.4454 8.42811 26.4754 8.40811 26.4754H8.38811C8.37811 26.4554 8.40811 26.5154 8.35811 26.4354C8.31811 26.3654 8.27811 26.2854 8.22811 26.1854C8.0781 25.9054 7.87811 25.6354 7.81811 25.3154C7.81811 25.2954 7.80811 25.2754 7.79811 25.2554C7.77811 25.2254 7.75811 25.2054 7.73811 25.1754C7.43811 24.8854 7.34811 24.4554 7.03811 24.1854C6.96811 24.1354 6.94811 24.0254 6.93811 23.9454C6.87811 23.6454 6.76811 23.3754 6.57811 23.1354C6.50811 23.0554 6.46811 22.9554 6.41811 22.8654C6.31811 22.6454 6.22811 22.4154 6.02811 22.2554C5.97811 22.2154 5.93811 22.1454 5.92811 22.0754C5.88811 21.7854 5.71811 21.5654 5.61811 21.3054C5.59811 21.2554 5.57811 21.1954 5.53811 21.1854C5.33811 21.1054 5.31811 20.9354 5.26811 20.7654C5.18811 20.4854 5.06811 20.2054 4.85811 19.9954C4.72811 19.8554 4.66811 19.6754 4.61811 19.4854C4.54811 19.1854 4.48811 18.8754 4.35811 18.5954C4.03811 17.9254 4.00811 17.8354 4.00811 17.7654C4.00811 17.6254 3.96811 17.5154 3.96811 17.5154L3.89811 17.3154C3.66811 16.6354 3.55811 16.5354 3.36811 15.7354C3.29811 15.4454 3.16811 15.1554 3.22811 14.8554C3.22811 14.8354 3.22811 14.8154 3.22811 14.7954C3.22811 14.7654 3.20811 14.7354 3.19811 14.7154C2.99811 14.3754 3.08811 13.9654 2.90811 13.6154C2.86811 13.5454 2.88811 13.4454 2.91811 13.3654C2.99811 13.0854 3.01811 12.8154 2.95811 12.5354C2.93811 12.4454 2.95811 12.3454 2.95811 12.2454C2.98811 12.0254 3.02811 11.8054 2.94811 11.5854C2.92811 11.5254 2.91811 11.4554 2.95811 11.3954C3.09811 11.1554 3.09811 10.8954 3.16811 10.6554C3.18811 10.6054 3.19811 10.5554 3.16811 10.5154C3.05811 10.3354 3.16811 10.2154 3.23811 10.0554C3.37811 9.81538 3.42811 9.54538 3.44811 9.26538C3.45811 9.08538 3.54811 8.92538 3.64811 8.77538C3.79811 8.52538 4.00811 8.30538 4.12811 8.04538C4.39811 7.39538 4.50811 7.35538 4.53811 7.30538C4.63811 7.22538 4.70811 7.13538 4.70811 7.13538L4.81811 6.96538C5.00811 6.67538 5.13811 6.52538 5.25811 6.34538C5.38811 6.16538 5.50811 5.96538 5.80811 5.70538C6.01811 5.50538 6.16811 5.23538 6.46811 5.14538C6.48811 5.14538 6.49811 5.12538 6.51811 5.11538C6.53811 5.09538 6.55811 5.07538 6.57811 5.04538C6.77811 4.71538 7.14811 4.56538 7.37811 4.26538C7.41811 4.19538 7.51811 4.17538 7.59811 4.15538C7.86811 4.07538 8.10811 3.96538 8.33811 3.79538C8.40811 3.72538 8.50811 3.69538 8.58811 3.64538C8.78811 3.54538 9.00811 3.47538 9.16811 3.30538C9.20811 3.25538 9.27811 3.22538 9.33811 3.22538C9.61811 3.22538 9.82811 3.04538 10.0881 3.00538C10.1381 3.00538 10.1981 2.98538 10.2181 2.94538C10.3181 2.76538 10.4781 2.77538 10.6481 2.75538C10.9181 2.71538 11.1981 2.66538 11.4381 2.50538C11.5981 2.40538 11.7781 2.39538 11.9581 2.38538C12.2481 2.38538 12.5581 2.43538 12.8481 2.37538C13.5581 2.22538 13.6481 2.28538 13.7081 2.28538C13.8381 2.32538 13.9481 2.31538 13.9481 2.31538H14.1481C14.8381 2.31538 14.9781 2.23538 15.7781 2.33538C16.0681 2.38538 16.3781 2.35538 16.6381 2.51538C16.6481 2.52538 16.6681 2.53538 16.6981 2.53538C16.7281 2.53538 16.7581 2.53538 16.7881 2.53538C17.1681 2.50538 17.5281 2.68538 17.8981 2.67538C17.9781 2.67538 18.0581 2.72538 18.1181 2.78538C18.3481 2.95538 18.5981 3.06538 18.8681 3.13538C18.9681 3.14538 19.0581 3.20538 19.1381 3.24538C19.3381 3.34538 19.5381 3.46538 19.7681 3.48538C19.8281 3.48538 19.8981 3.51538 19.9381 3.56538C20.1181 3.77538 20.3881 3.83538 20.5781 4.01538C20.6181 4.04538 20.6581 4.08538 20.7081 4.07538C20.9081 4.04538 21.0081 4.16538 21.1281 4.28538C21.3281 4.46538 21.5381 4.66538 21.8181 4.75538C21.9881 4.82538 22.1281 4.93538 22.2381 5.09538C22.4081 5.33538 22.5781 5.58538 22.7981 5.77538C23.3081 6.27538 23.3581 6.34538 23.3881 6.39538C23.4381 6.50538 23.5081 6.60538 23.5081 6.60538L23.6281 6.76538C24.0481 7.30538 24.1681 7.38538 24.5581 8.07538C24.6881 8.33538 24.8581 8.57538 24.8881 8.87538C24.8881 8.89538 24.8881 8.91538 24.9081 8.92538C24.9181 8.95538 24.9381 8.97538 24.9581 8.99538C25.1881 9.28538 25.2181 9.68538 25.4481 9.98538C25.4981 10.0454 25.4881 10.1454 25.4681 10.2254C25.4381 10.5054 25.4981 10.7654 25.5581 11.0254C25.5981 11.1154 25.5881 11.2154 25.6081 11.3054C25.6081 11.5254 25.6281 11.7454 25.7281 11.9554C25.7581 12.0154 25.7681 12.0854 25.7381 12.1454C25.6481 12.4054 25.7181 12.6554 25.6581 12.9054C25.6481 12.9554 25.6381 13.0154 25.6581 13.0454C25.7881 13.2054 25.7181 13.3454 25.6781 13.5154C25.5881 13.7754 25.5381 14.0554 25.5981 14.3354C25.6381 14.5154 25.5581 14.6854 25.4881 14.8654C25.3681 15.1354 25.2381 15.4154 25.1581 15.6954C25.0081 16.4054 24.9481 16.4854 24.9181 16.5454C24.8381 16.6554 24.7981 16.7654 24.7981 16.7654L24.7281 16.9654C24.4681 17.6354 24.4981 17.7854 24.1281 18.5454C23.9981 18.8254 23.9281 19.1354 23.6881 19.3554C23.6781 19.3654 23.6681 19.3854 23.6581 19.4054C23.6481 19.4354 23.6381 19.4654 23.6281 19.4954C23.5681 19.8954 23.2681 20.2054 23.2181 20.6054C23.2181 20.6854 23.1381 20.7654 23.0681 20.8154C22.8581 21.0254 22.6781 21.2654 22.5881 21.5454C22.5581 21.6454 22.4981 21.7354 22.4481 21.8254C22.3181 22.0254 22.1681 22.2254 22.1381 22.4854C22.1381 22.5554 22.0981 22.6254 22.0481 22.6654C21.8281 22.8554 21.7281 23.1254 21.5681 23.3554C21.5381 23.3954 21.4981 23.4554 21.5081 23.4954C21.5481 23.7054 21.4181 23.8154 21.2981 23.9654C21.1081 24.1954 20.9481 24.4654 20.8881 24.7654C20.8481 24.9554 20.7281 25.1154 20.6081 25.2754C20.4081 25.5254 20.1881 25.7754 20.0481 26.0654C19.8781 26.4254 19.7881 26.6254 19.7381 26.7454C19.6881 26.8454 19.7181 26.7754 19.6981 26.7954L19.6781 26.7854C19.6581 26.7754 19.6581 26.7754 19.6581 26.7754L21.0481 28.3854C21.1981 28.1954 21.1981 28.1754 21.2681 28.0554C21.2681 28.0454 21.2781 27.9954 21.3081 27.9154C21.5081 27.6254 21.3781 27.6354 21.5081 27.5254C21.6181 27.4354 21.7081 27.3254 21.7681 27.2054C21.8181 27.1054 21.8581 26.9954 21.8881 26.8854C21.9581 26.6354 22.1081 26.4554 22.2381 26.2454C22.3081 26.1254 22.4181 26.0254 22.4681 25.8954C22.5581 25.6554 22.6981 25.4554 22.8181 25.2454C22.9981 24.9054 23.2381 24.5954 23.3281 24.2054C23.3681 24.0354 23.4181 23.8354 23.5481 23.7254C23.8681 23.4654 23.9981 23.0954 24.2081 22.7654C24.2681 22.6754 24.3281 22.5754 24.3281 22.4754C24.3381 22.1654 24.6181 21.9954 24.6881 21.7154C24.8981 21.5554 24.9781 21.3154 25.0981 21.0854C25.4281 20.4654 25.7381 19.8254 26.0381 19.1754C26.1681 18.9154 26.2781 18.6454 26.3181 18.3454C26.3481 18.2054 26.3981 18.0554 26.4881 17.9454C26.6181 17.7454 26.6581 17.7354 26.7181 17.5554L26.7481 17.4854C26.7981 17.3054 26.7681 17.3554 26.7781 17.1854C26.8781 17.0354 26.7781 16.9854 26.8781 16.8654C26.9781 16.7454 27.0381 16.6054 27.0781 16.4754C27.1181 16.3554 27.1381 16.2254 27.1381 16.1054C27.1681 15.8354 27.2581 15.5954 27.3281 15.3454C27.3681 15.1954 27.4381 15.0554 27.4581 14.9154C27.4781 14.6454 27.5281 14.3854 27.5681 14.1154C27.6381 13.7054 27.6881 13.2754 27.6081 12.8554L27.6581 12.8654ZM18.3081 33.7054C18.3581 34.1254 18.2981 34.5554 18.4181 34.9554C18.4481 35.0354 18.4181 35.1254 18.3981 35.2154C18.2881 35.2054 18.1681 35.1854 18.0281 35.1654C17.6881 35.1154 17.3281 35.1254 17.0081 34.9754C16.9881 34.9654 16.9681 34.9654 16.9381 34.9554C16.9081 34.9554 16.8681 34.9554 16.8381 34.9554C16.3981 35.0154 15.9581 34.8354 15.5181 34.9154C15.4281 34.9354 15.3181 34.8854 15.2381 34.8454C14.9381 34.7154 14.6281 34.6354 14.2881 34.6354C14.1781 34.6354 14.0581 34.6154 13.9481 34.5954C13.6881 34.5454 13.4281 34.4754 13.1581 34.5354C13.0881 34.5454 12.9981 34.5454 12.9381 34.5154C12.6481 34.3754 12.3381 34.3854 12.0481 34.3054C11.9881 34.2854 11.9181 34.2754 11.8881 34.3054C11.6881 34.4154 11.5281 34.3354 11.3381 34.2754C11.0281 34.1754 10.6981 34.1154 10.3681 34.1754C10.1581 34.2054 9.95811 34.1454 9.74811 34.0854C9.59811 34.0354 9.43811 33.9854 9.28811 33.9354C9.31811 33.6354 9.31811 33.3254 9.23811 33.0254C9.18811 32.8254 9.20811 32.6154 9.23811 32.4054C9.30811 32.4154 9.36811 32.4354 9.43811 32.4454C9.58811 32.4754 9.73811 32.5354 9.88811 32.5454C10.1681 32.5454 10.4281 32.6154 10.6881 32.6554C11.1081 32.7054 11.5181 32.8254 11.9481 32.7654C12.1381 32.7454 12.3581 32.7254 12.5181 32.8054C12.9081 33.0154 13.3381 33.0054 13.7481 33.0854C13.8581 33.1054 13.9881 33.1354 14.0881 33.0954C14.4081 32.9954 14.6781 33.1954 14.9881 33.1854C15.2281 33.3354 15.4981 33.3254 15.7681 33.3654C16.5081 33.4754 17.2481 33.5854 17.9981 33.6854C18.1081 33.7054 18.2081 33.7154 18.3181 33.7254L18.3081 33.7054ZM18.2881 37.4454C18.2881 37.4454 18.2881 37.4454 18.2581 37.4454L18.1181 37.4854C18.0481 37.4954 17.9781 37.5154 17.9481 37.5654C17.7981 37.7654 17.5881 37.7754 17.3581 37.8254C16.9781 37.9054 16.5881 38.0454 16.2781 38.3054C16.0681 38.4654 15.8281 38.5654 15.5781 38.6654C15.1781 38.8154 14.7481 39.0454 14.3981 39.3654C13.9081 39.8754 13.9981 39.7954 13.9281 39.8454C13.8881 39.8654 13.8881 39.8654 13.8781 39.8454C13.8381 39.8154 13.8381 39.8154 13.8381 39.8154C13.8381 39.8154 13.8281 39.8154 13.8181 39.8154C13.7681 39.8854 13.2881 39.3254 12.3181 38.7154C11.9381 38.4754 11.5081 38.3354 11.1781 38.0654C11.1581 38.0454 11.1281 38.0354 11.0981 38.0254C11.0581 38.0054 11.0181 37.9954 10.9781 37.9954C10.4481 37.9054 9.96811 37.6054 9.47811 37.5854C9.33811 37.5754 9.36811 37.5454 9.34811 37.5054C9.34811 37.4054 9.41811 37.4054 9.34811 37.4054C9.3281 37.4554 9.34811 37.2254 9.34811 37.1254C9.36811 36.8254 9.39811 36.5154 9.29811 36.2254C9.27811 36.1454 9.26811 36.0454 9.29811 35.9654C9.29811 35.9354 9.29811 35.9154 9.29811 35.8854C9.35811 35.8954 9.4081 35.9054 9.46811 35.9154C9.6181 35.9454 9.76811 36.0054 9.91811 36.0154C10.1981 36.0154 10.4581 36.0854 10.7181 36.1254C11.1381 36.1754 11.5481 36.2954 11.9781 36.2354C12.1681 36.2154 12.3881 36.1954 12.5481 36.2754C12.9381 36.4854 13.3681 36.4754 13.7781 36.5554C13.8881 36.5754 14.0181 36.6054 14.1181 36.5654C14.4381 36.4654 14.7081 36.6654 15.0181 36.6554C15.2581 36.8054 15.5281 36.7954 15.7981 36.8354C16.5381 36.9454 17.2781 37.0554 18.0281 37.1554C18.1281 37.1754 18.2281 37.1854 18.3281 37.1954C18.3281 37.3554 18.3481 37.4654 18.3981 37.4154C18.4181 37.4254 18.4281 37.4454 18.3981 37.4454C18.3481 37.4454 18.3181 37.4254 18.3181 37.4254L18.2881 37.4454ZM13.0181 26.5054C13.0181 26.3054 12.9181 26.3054 12.9481 26.1354C12.9781 25.9654 12.9781 25.7954 12.9481 25.6454C12.9281 25.5054 12.8881 25.3754 12.8381 25.2454C12.7281 24.9654 12.7281 24.6754 12.6881 24.3954C12.6681 24.2254 12.6881 24.0554 12.6381 23.9054C12.5581 23.6154 12.5281 23.3254 12.4781 23.0454C12.3981 22.5954 12.3781 22.1354 12.1781 21.7054C12.0981 21.5254 12.0081 21.2954 12.0381 21.1054C12.1181 20.6354 11.9681 20.2054 11.9181 19.7454C11.9081 19.6254 11.8881 19.4854 11.8281 19.3954C11.6381 19.0954 11.7381 18.7454 11.6181 18.4354C11.6881 18.1454 11.5881 17.8654 11.5381 17.5654C11.4081 16.7654 11.2681 15.9654 11.1381 15.1554C11.0881 14.8254 11.0381 14.5054 10.9081 14.1854C10.8581 14.0354 10.8181 13.8554 10.8281 13.6954C10.8281 13.4254 10.8581 13.3954 10.8281 13.1854V13.1054C10.7681 12.9054 10.7681 12.9654 10.6881 12.7954C10.6881 12.5954 10.5881 12.5954 10.6181 12.4254C10.6481 12.2554 10.6481 12.0854 10.6181 11.9354C10.6181 11.8754 10.5881 11.7654 10.5781 11.7654C10.5781 11.7654 10.5581 11.7654 10.5481 11.7654C10.4881 11.7254 10.5781 11.6054 10.6581 11.5254C10.7081 11.4754 10.7981 11.4454 10.8481 11.3854C10.9581 11.2654 11.1281 11.2054 11.2981 11.1554C11.4281 11.1054 11.5781 11.0954 11.7281 11.0954C11.8681 11.0954 12.1581 11.0754 12.3681 11.0154C12.5681 10.9654 12.7981 10.9154 12.9781 10.9754C13.4281 11.1354 13.8781 11.0554 14.3381 11.0854C14.4581 11.0854 14.5981 11.1054 14.6981 11.0554C15.0281 10.9154 15.3481 11.0754 15.6781 11.0154C15.9481 11.1354 16.2881 11.0754 16.4381 11.0954C16.9681 11.1354 17.4281 11.4854 17.4681 11.7154C17.4781 11.7754 17.4781 11.7954 17.4881 11.7854C17.4881 11.9254 17.4681 12.1054 17.4881 12.2754C17.4881 12.4354 17.4781 12.6154 17.4281 12.7654C17.3481 13.0154 17.3081 13.0454 17.2781 13.2554V13.3354C17.2481 13.5354 17.2781 13.4854 17.2981 13.6654C17.2281 13.8554 17.3381 13.8854 17.2581 14.0354C17.1781 14.1854 17.1381 14.3454 17.1081 14.5054C17.0881 14.6454 17.0881 14.7854 17.0981 14.9154C17.1181 15.2154 17.0281 15.4854 16.9881 15.7754C16.9581 15.9454 16.8981 16.1054 16.8881 16.2554C16.8881 16.5554 16.8181 16.8354 16.7781 17.1254C16.7281 17.5754 16.6081 18.0254 16.6681 18.4954C16.6881 18.6954 16.7081 18.9354 16.6281 19.1054C16.4181 19.5254 16.4281 19.9954 16.3381 20.4354C16.3181 20.5554 16.2881 20.6954 16.3181 20.7954C16.4181 21.1354 16.2181 21.4354 16.2281 21.7754C16.0781 22.0354 16.0881 22.3254 16.0481 22.6254C15.9381 23.4254 15.8381 24.2354 15.7181 25.0454C15.6681 25.3754 15.6181 25.6954 15.6481 26.0454C15.6481 26.2054 15.6381 26.3854 15.5781 26.5354C15.4981 26.7854 15.4581 26.8154 15.4281 27.0254V27.1054L15.3781 27.4354C15.3581 27.5654 15.3781 27.6954 15.3681 27.8254C15.2481 27.8354 15.1181 27.8554 14.9981 27.8954C14.9081 27.9354 14.7981 27.9254 14.7081 27.9354C14.4881 27.9354 14.2681 27.9354 14.0981 28.0254C14.0481 28.0554 13.9881 28.0554 13.9381 28.0254C13.7481 27.9154 13.4681 27.9254 13.2281 27.8454C13.2081 27.8454 13.1781 27.8254 13.1581 27.8254C13.1881 27.5854 13.1981 27.3454 13.1881 27.1054L13.1381 26.7954C13.0981 26.5954 13.0881 26.6554 13.0081 26.4854L13.0181 26.5054ZM9.59811 29.0554C9.71811 29.0854 9.83811 29.1054 9.95811 29.1154C10.2281 29.1354 10.4481 29.2454 10.6881 29.3154C10.8281 29.3554 10.9581 29.4354 11.0981 29.4554C11.3581 29.4854 11.5981 29.5754 11.8481 29.6254C12.2381 29.7054 12.6281 29.8454 13.0581 29.8054C13.2381 29.7854 13.4681 29.7654 13.6381 29.8454C14.1081 30.0554 14.5981 29.9354 14.9981 29.9154C15.1081 29.9154 15.2381 29.9054 15.3281 29.8454C15.5981 29.6654 15.9081 29.7754 16.1781 29.6654C16.4381 29.7354 16.6781 29.6354 16.9381 29.5854C17.3881 29.4954 17.8281 29.3954 18.2681 29.2854C18.2681 29.2854 18.2681 29.2854 18.2681 29.2954V29.9054C18.2681 30.7154 18.3281 30.9554 18.3281 31.7054C18.2381 31.6954 18.1481 31.6754 18.0381 31.6654C17.6981 31.6154 17.3381 31.6254 17.0181 31.4754C16.9981 31.4654 16.9781 31.4654 16.9481 31.4554C16.9181 31.4554 16.8781 31.4554 16.8481 31.4554C16.4081 31.5154 15.9681 31.3354 15.5281 31.4154C15.4381 31.4354 15.3281 31.3854 15.2481 31.3454C14.9481 31.2154 14.6381 31.1354 14.2981 31.1354C14.1881 31.1354 14.0681 31.1154 13.9581 31.0954C13.6981 31.0454 13.4381 30.9754 13.1681 31.0354C13.0981 31.0454 13.0081 31.0454 12.9481 31.0154C12.6581 30.8754 12.3481 30.8854 12.0581 30.8054C11.9981 30.7854 11.9281 30.7754 11.8981 30.8054C11.6981 30.9154 11.5381 30.8354 11.3481 30.7754C11.0381 30.6754 10.7081 30.6154 10.3781 30.6754C10.1681 30.7054 9.96811 30.6454 9.75811 30.5854C9.62811 30.5354 9.47811 30.4954 9.33811 30.4554C9.32811 30.1154 9.33811 30.0354 9.33811 29.9754C9.37811 29.8054 9.37811 29.6554 9.37811 29.6554V29.3054C9.37811 29.1854 9.34811 29.0554 9.33811 28.9354C9.42811 28.9954 9.50811 29.0454 9.60811 29.0754L9.59811 29.0554Z" fill="#00023C"></path></g><defs><clipPath id="clip0_1158_62703"><rect width="26.71" height="41.62" fill="white" transform="translate(0.988281 0.275391)"></rect></clipPath></defs></svg>