<svg width="46" height="47" viewBox="0 0 46 47" fill="none" xmlns="http://www.w3.org/2000/svg"><rect x="15.3579" y="25.6626" width="7.1033" height="19.3021" rx="1" transform="rotate(42.6073 15.3579 25.6626)" fill="#00DEB6" stroke="#000433" stroke-width="2"></rect><circle cx="30.4995" cy="15.5" r="14.5" fill="white" stroke="#000433" stroke-width="2"></circle><circle cx="30.4995" cy="15.5" r="10.5" fill="#00DEB6" stroke="#000433" stroke-width="2"></circle><mask id="path-4-outside-1_1270_25094" maskUnits="userSpaceOnUse" x="23.9995" y="8" width="11" height="14" fill="black"><rect fill="white" x="23.9995" y="8" width="11" height="14"></rect><path d="M25.7719 15.5768C25.8534 15.5768 25.8306 15.5705 25.9024 15.5546C25.9806 15.5673 25.9872 15.5356 26.0491 15.5546C26.1111 15.5736 26.1796 15.58 26.2415 15.58C26.2969 15.58 26.3524 15.5736 26.4046 15.5673C26.522 15.5483 26.6328 15.5673 26.7502 15.5673C26.8155 15.5673 26.8839 15.5831 26.9459 15.5768C27.0633 15.5673 27.1774 15.5768 27.2948 15.5768C27.3633 15.5768 27.4351 15.5768 27.5035 15.5768C27.5035 15.5927 27.5068 15.599 27.5101 15.6307C27.484 15.6782 27.5166 15.6909 27.4872 15.7258C27.4579 15.7606 27.4383 15.8018 27.4285 15.843C27.4187 15.8779 27.4155 15.9159 27.4122 15.9508C27.4122 16.0332 27.3764 16.0998 27.3535 16.1727C27.3405 16.2139 27.3144 16.2551 27.3079 16.2963C27.2981 16.3755 27.2687 16.4484 27.2492 16.5213C27.2198 16.6386 27.1709 16.7527 27.1774 16.8763C27.1774 16.9302 27.1774 16.9936 27.1481 17.038C27.0666 17.1394 27.06 17.263 27.0209 17.3771C27.0111 17.4088 26.9981 17.4437 27.0079 17.4722C27.0307 17.5673 26.9589 17.637 26.9557 17.7258C26.9002 17.7891 26.897 17.8652 26.8774 17.9445C26.822 18.1536 26.7665 18.3597 26.7111 18.572C26.685 18.6576 26.6654 18.74 26.6654 18.8319C26.6654 18.8731 26.6524 18.9207 26.6328 18.9587C26.6002 19.0221 26.5872 19.0253 26.5741 19.0823L26.5676 19.1045C26.5578 19.1584 26.5676 19.1457 26.5676 19.1933C26.5415 19.2408 26.5741 19.2535 26.5448 19.2883C26.5154 19.3232 26.4959 19.3644 26.4861 19.4056C26.4763 19.4405 26.473 19.4785 26.473 19.5134C26.473 19.5958 26.4372 19.6623 26.4143 19.7352C26.4013 19.7765 26.3752 19.8177 26.372 19.8589C26.3622 19.9381 26.3361 20.011 26.3165 20.0839L26.3067 20.1283L26.2904 20.2107C26.2839 20.2677 26.2806 20.3216 26.2904 20.3787C26.3035 20.4896 26.3524 20.6005 26.4307 20.6798C26.4991 20.7495 26.5872 20.8066 26.6557 20.8668C26.7339 20.9428 26.8481 20.984 26.9622 20.9904H27.1676C27.2003 20.9967 27.2394 20.9999 27.2655 20.984C27.3535 20.9397 27.4416 20.9904 27.5329 20.9714C27.6079 21.0094 27.6861 20.9936 27.7677 20.9936C27.9894 20.9936 28.2079 20.9936 28.4329 20.9936C28.5242 20.9936 28.6123 20.9936 28.7036 20.9714C28.746 20.965 28.7949 20.9619 28.8373 20.9714C28.909 20.9872 28.9156 20.9967 28.9743 20.9967H28.9971C29.0525 20.9967 29.0362 20.9904 29.0851 20.9745C29.1373 20.9872 29.1438 20.9524 29.1862 20.9745C29.2286 20.9936 29.2743 20.9999 29.3167 20.9999C29.3558 20.9999 29.3917 20.9936 29.4275 20.9872C29.5091 20.9682 29.5841 20.9872 29.6623 20.9872C29.708 20.9872 29.7536 21.0031 29.796 20.9967C29.8776 20.9872 29.9558 20.9967 30.0341 20.9967C30.158 20.9967 30.2819 21.0126 30.4059 20.9745C30.458 20.9587 30.5233 20.9428 30.5722 20.9619C30.6928 21.0126 30.8167 20.9872 30.9439 20.9967C30.9765 20.9967 31.0157 21.0031 31.0418 20.9872C31.1298 20.9428 31.2178 20.9936 31.3092 20.9745C31.3842 21.0126 31.4624 20.9967 31.544 20.9967C31.7657 20.9967 31.9842 20.9967 32.2092 20.9967C32.3005 20.9967 32.3886 20.9967 32.4799 20.9745C32.5223 20.9682 32.5712 20.965 32.6136 20.9745C32.6853 20.9904 32.6918 20.9999 32.7505 20.9999H32.8647C32.9462 20.9999 33.031 20.9872 33.1125 20.9714C33.1484 20.965 33.194 20.9333 33.2038 20.9016C33.2397 20.8129 33.2625 20.7241 33.2853 20.6322C33.2984 20.5847 33.2788 20.5403 33.2397 20.5054C33.1353 20.4072 32.9919 20.3723 32.8614 20.347H32.7049C32.4636 20.347 32.4179 20.3692 32.1407 20.366C32.0396 20.366 31.9353 20.385 31.8374 20.3501C31.8309 20.3501 31.8244 20.3501 31.8179 20.3501C31.8081 20.3501 31.7983 20.3501 31.7885 20.3565C31.6613 20.3945 31.5276 20.3565 31.4037 20.4009C31.3776 20.4104 31.345 20.4009 31.3189 20.3913C31.2244 20.3628 31.1298 20.3533 31.0352 20.3692C31.0026 20.3755 30.9667 20.3692 30.9341 20.3692C30.8559 20.3628 30.7776 20.3533 30.6993 20.385C30.6798 20.3913 30.6537 20.3945 30.6341 20.385C30.5461 20.3533 30.4548 20.3692 30.3667 20.3596C30.3504 20.3596 30.3276 20.3533 30.3178 20.366C30.2656 20.4104 30.2135 20.3913 30.1548 20.3818C30.0602 20.3628 29.9624 20.3596 29.8678 20.3913C29.8058 20.4104 29.7471 20.4009 29.6819 20.3913C29.5841 20.3723 29.4797 20.3501 29.3786 20.3533C29.1308 20.3692 29.0982 20.366 29.0786 20.3596C29.0362 20.347 28.9938 20.347 28.9938 20.347H28.9221C28.6808 20.347 28.6351 20.3692 28.3579 20.366C28.2568 20.366 28.1525 20.385 28.0546 20.3501C28.0481 20.3501 28.0416 20.3501 28.0351 20.3501C28.0253 20.3501 28.0155 20.3501 28.0057 20.3565C27.8786 20.3945 27.7448 20.3565 27.6209 20.4009C27.5948 20.4104 27.5622 20.4009 27.5361 20.3913C27.4416 20.3628 27.347 20.3533 27.2524 20.3692C27.2198 20.3755 27.1839 20.3692 27.1513 20.3692C27.1122 20.3692 27.0731 20.3628 27.0339 20.3628H27.0046C27.0046 20.3628 27.0013 20.3628 26.9981 20.366C26.9948 20.3692 26.9916 20.3723 26.985 20.3818C26.9785 20.3882 26.972 20.3913 26.972 20.3818C26.972 20.347 26.9524 20.3501 26.9524 20.3311C26.9524 20.328 26.9557 20.3248 26.9426 20.3248C26.897 20.3311 26.91 20.3089 26.9231 20.2994C26.9263 20.2931 26.9329 20.2931 26.9361 20.2867C26.9426 20.2646 26.9524 20.2424 26.9557 20.2202C26.9655 20.1758 26.972 20.1283 26.9655 20.0807C26.9622 20.0205 26.985 19.9635 27.0111 19.9064C27.0535 19.8177 27.1024 19.7257 27.122 19.6275C27.1676 19.3898 27.1774 19.3612 27.1872 19.3422C27.21 19.3042 27.2198 19.2662 27.2198 19.2662L27.2361 19.1996C27.2948 18.9714 27.2818 18.9238 27.3568 18.6639C27.3829 18.5689 27.3894 18.4674 27.4481 18.3819C27.4514 18.3787 27.4546 18.3692 27.4546 18.3628C27.4546 18.3533 27.4546 18.3438 27.4546 18.3343C27.4481 18.2044 27.5198 18.0871 27.5068 17.9603C27.5035 17.9349 27.5198 17.9064 27.5394 17.8842C27.5916 17.8018 27.6242 17.7162 27.634 17.6243C27.634 17.5926 27.647 17.5578 27.6568 17.5292C27.6829 17.4563 27.7122 17.3866 27.6992 17.3074C27.6992 17.2852 27.6992 17.263 27.7122 17.244C27.7644 17.1679 27.7742 17.0792 27.8068 16.9968C27.8133 16.9809 27.8231 16.9619 27.8133 16.9492C27.7807 16.889 27.8133 16.8446 27.8394 16.7939C27.8818 16.7115 27.9079 16.6196 27.9014 16.5213C27.9014 16.4611 27.9209 16.4041 27.947 16.347C27.9894 16.2583 28.0383 16.1663 28.0612 16.0713C28.1101 15.8335 28.1199 15.805 28.1296 15.7892C28.1525 15.7511 28.1655 15.7131 28.1655 15.7131L28.1851 15.6465C28.1916 15.618 28.2014 15.5895 28.2047 15.5641C28.3449 15.58 28.4851 15.5705 28.6286 15.5736C28.6775 15.5736 28.7329 15.58 28.7721 15.5641C28.9025 15.5198 29.0297 15.5673 29.1601 15.5483C29.271 15.5831 29.3851 15.5673 29.5025 15.5673C29.8254 15.5673 30.145 15.5673 30.4711 15.5673C30.6048 15.5673 30.7352 15.5673 30.8657 15.5451C30.9276 15.5356 30.9994 15.5356 31.0613 15.5451C31.1657 15.561 31.1755 15.5705 31.2602 15.5705H31.2929H31.4233C31.544 15.5705 31.6646 15.5578 31.782 15.5388C31.8342 15.5293 31.8994 15.5007 31.9157 15.469C31.9679 15.3803 32.0005 15.2884 32.0331 15.1996C32.0527 15.1521 32.0233 15.1077 31.9646 15.0728C31.8114 14.9746 31.6027 14.9397 31.4103 14.9175H31.2831H31.1787C30.8265 14.9175 30.7613 14.9429 30.3537 14.9397C30.2069 14.9397 30.0537 14.9587 29.9102 14.927C29.9037 14.927 29.8906 14.927 29.8808 14.927C29.8645 14.927 29.8515 14.927 29.8352 14.9334C29.6493 14.9746 29.4536 14.9334 29.2743 14.9809C29.2384 14.9904 29.1895 14.9809 29.1536 14.9714C29.0167 14.9429 28.8797 14.9334 28.7395 14.9492C28.6905 14.9587 28.6384 14.9492 28.5927 14.9492C28.5079 14.9461 28.4231 14.9461 28.3416 14.9556C28.3547 14.9144 28.371 14.8732 28.3971 14.8351C28.4003 14.832 28.4036 14.8225 28.4036 14.8161C28.4036 14.8066 28.4036 14.7971 28.4036 14.7876C28.3971 14.6576 28.4721 14.5435 28.4623 14.4168C28.459 14.3914 28.4786 14.3629 28.4949 14.3407C28.5471 14.2614 28.5829 14.1759 28.5927 14.0808C28.5927 14.0491 28.609 14.0174 28.6188 13.9857C28.6449 13.9128 28.6775 13.8431 28.6677 13.7638C28.6677 13.7416 28.6677 13.7195 28.684 13.7004C28.7395 13.6275 28.7492 13.5356 28.7819 13.4564C28.7884 13.4405 28.7982 13.4215 28.7916 13.4088C28.7623 13.3486 28.7949 13.3042 28.821 13.2535C28.8666 13.1711 28.896 13.0824 28.8927 12.9841C28.8927 12.9239 28.9156 12.8668 28.9449 12.813C28.9906 12.7274 29.046 12.6386 29.0688 12.5435C29.1243 12.309 29.1373 12.2836 29.1504 12.2678C29.1764 12.2329 29.1895 12.1949 29.1895 12.1949L29.2123 12.1315C29.2873 11.9128 29.2808 11.8653 29.3786 11.6276C29.4145 11.5451 29.4308 11.4722 29.5025 11.4057C29.5091 11.4025 29.5123 11.3962 29.5156 11.3898C29.5221 11.3803 29.5221 11.3708 29.5254 11.3613C29.5547 11.2314 29.6558 11.1299 29.6721 11C29.6721 10.9746 29.6982 10.9493 29.721 10.9334C29.7895 10.8637 29.8417 10.7908 29.871 10.702C29.8776 10.6703 29.9004 10.645 29.9167 10.6165C29.9558 10.5531 30.0047 10.496 30.0113 10.4231C30.0113 10.4041 30.0243 10.3819 30.0406 10.3692C30.1124 10.3217 30.1417 10.2393 30.1971 10.1886C30.2102 10.1791 30.22 10.1664 30.2167 10.1537C30.2069 10.0903 30.2526 10.065 30.2917 10.0396C30.3569 9.9889 30.4189 9.94452 30.4548 9.86846C30.4841 9.82725 30.5298 9.80506 30.5754 9.78288C30.657 9.76386 30.732 9.74484 30.807 9.71632C30.9863 9.64342 31.0189 9.65293 31.0352 9.64976C31.0711 9.6561 31.107 9.6561 31.107 9.6561L31.1657 9.64976C31.3613 9.64025 31.4298 9.61489 31.6222 9.65927C31.694 9.66877 31.7787 9.70047 31.8342 9.75118C31.8342 9.75435 31.8407 9.75752 31.8472 9.75752C31.8538 9.76069 31.8635 9.76386 31.8701 9.76703C31.9777 9.78922 32.0527 9.87163 32.1603 9.91283C32.1831 9.91917 32.1994 9.94452 32.2092 9.96671C32.2549 10.0364 32.2973 10.1093 32.369 10.1569C32.3951 10.1727 32.4146 10.1981 32.4342 10.2203C32.4733 10.2805 32.5092 10.3407 32.581 10.3756C32.6005 10.3851 32.6168 10.4009 32.6201 10.42C32.6397 10.5055 32.7016 10.5658 32.7375 10.6387C32.744 10.6545 32.7538 10.6703 32.7668 10.6735C32.8321 10.6925 32.8418 10.7432 32.8581 10.794C32.8875 10.8764 32.9332 10.9556 33.0016 11.019C33.044 11.0602 33.0669 11.1141 33.0832 11.1711C33.106 11.2631 33.1321 11.3581 33.1745 11.4437C33.2886 11.6497 33.2951 11.6783 33.2951 11.6973C33.2984 11.7385 33.3147 11.7734 33.3147 11.7734L33.3473 11.8526C33.3767 11.9255 33.4158 11.992 33.4582 12.0586C33.4777 12.0871 33.5201 12.1157 33.556 12.1157C33.6506 12.1188 33.7484 12.1125 33.8462 12.1062C33.8984 12.1062 33.9343 12.0713 33.9571 12.0237C34.0191 11.8906 34.0028 11.7448 33.9734 11.6117L33.9408 11.5293C33.9147 11.4786 33.918 11.4944 33.8821 11.4564C33.8723 11.4025 33.8397 11.4089 33.8397 11.3645C33.8397 11.3169 33.8267 11.2726 33.8071 11.2314C33.7908 11.1965 33.7712 11.1648 33.7484 11.1331C33.6962 11.0665 33.6734 10.9905 33.6408 10.9176C33.6245 10.8732 33.6114 10.8288 33.5854 10.7908C33.5364 10.7242 33.5038 10.6482 33.4647 10.5784C33.393 10.4707 33.3473 10.3502 33.2397 10.2646C33.194 10.2266 33.1451 10.1822 33.1288 10.1284C33.0962 9.99524 32.9886 9.90649 32.9136 9.79873C32.8908 9.7702 32.8647 9.7385 32.8321 9.72899C32.7277 9.69096 32.7081 9.5832 32.6136 9.53565C32.5744 9.45324 32.4962 9.40887 32.4212 9.35182C32.2092 9.20919 31.9744 9.07607 31.6907 9.02853C31.6353 9.01585 31.5766 9.00634 31.5211 9C31.4689 9 31.4168 9.00634 31.3646 9.01585C31.3157 9.02219 31.2635 9.02536 31.2146 9.01585C31.1331 9.00634 31.1233 8.99683 31.0548 9.00317H31.0287C30.9635 9.01585 30.9831 9.01585 30.9276 9.0412C30.8624 9.0412 30.8657 9.07607 30.8102 9.06973C30.7548 9.06339 30.6993 9.06339 30.6504 9.08241C30.6048 9.09826 30.5656 9.11727 30.5265 9.13946C30.4385 9.187 30.3569 9.22187 30.2689 9.26307C30.22 9.28843 30.1678 9.31062 30.1287 9.34548C30.0504 9.4057 29.9852 9.46909 29.9134 9.52931C29.8123 9.63391 29.708 9.729 29.6558 9.86212C29.633 9.91917 29.6134 9.98256 29.5645 10.0174C29.4504 10.0998 29.4047 10.2234 29.3362 10.3312C29.3167 10.3597 29.2971 10.3914 29.2971 10.4231C29.2971 10.5214 29.2091 10.5784 29.1862 10.6608C29.1177 10.7084 29.0949 10.7845 29.059 10.851L28.9058 11.1236C28.8503 11.2345 28.7851 11.3581 28.7492 11.4596C28.7134 11.5451 28.6808 11.6307 28.671 11.7258C28.6645 11.7702 28.6514 11.8146 28.6286 11.8526C28.5895 11.9128 28.5764 11.9192 28.5601 11.973L28.5536 11.9952C28.5373 12.0491 28.5471 12.0364 28.5471 12.0871C28.5177 12.1347 28.5471 12.1474 28.5177 12.1822C28.4884 12.2171 28.4655 12.2583 28.4525 12.2995C28.4427 12.3344 28.4362 12.3724 28.4329 12.4073C28.4264 12.4897 28.3873 12.5562 28.3612 12.6291C28.3449 12.6703 28.3188 12.7115 28.3123 12.7527C28.2992 12.832 28.2699 12.9049 28.247 12.9778C28.2144 13.0951 28.159 13.206 28.1623 13.3328C28.1623 13.3866 28.1623 13.45 28.1296 13.4944C28.0481 13.5958 28.0351 13.7195 27.9959 13.8336C27.9829 13.8653 27.9699 13.9001 27.9796 13.9286C27.9992 14.0237 27.9275 14.0935 27.9209 14.1822C27.8655 14.2424 27.859 14.3217 27.8362 14.3977C27.784 14.5847 27.7285 14.7717 27.6764 14.9619C27.6079 14.9936 27.5394 14.9778 27.4611 14.9683C27.3242 14.9492 27.1807 14.9461 27.0437 14.9778C26.9557 14.9968 26.8676 14.9873 26.7731 14.9778C26.6296 14.9587 26.4763 14.9366 26.3296 14.9397C25.9676 14.9556 25.9252 14.9524 25.8958 14.9461C25.8339 14.9334 25.7752 14.9334 25.7752 14.9334H25.6447C25.5273 14.9334 25.4034 14.9429 25.2893 14.9587C25.2371 14.9651 25.1752 14.9936 25.1556 15.0253C25.1099 15.1109 25.0838 15.2028 25.0154 15.2884C24.9828 15.3327 24.9991 15.3771 25.0773 15.4215C25.2534 15.5261 25.4458 15.5641 25.6447 15.5895H25.7719V15.5768Z"></path></mask><path d="M25.7719 15.5768C25.8534 15.5768 25.8306 15.5705 25.9024 15.5546C25.9806 15.5673 25.9872 15.5356 26.0491 15.5546C26.1111 15.5736 26.1796 15.58 26.2415 15.58C26.2969 15.58 26.3524 15.5736 26.4046 15.5673C26.522 15.5483 26.6328 15.5673 26.7502 15.5673C26.8155 15.5673 26.8839 15.5831 26.9459 15.5768C27.0633 15.5673 27.1774 15.5768 27.2948 15.5768C27.3633 15.5768 27.4351 15.5768 27.5035 15.5768C27.5035 15.5927 27.5068 15.599 27.5101 15.6307C27.484 15.6782 27.5166 15.6909 27.4872 15.7258C27.4579 15.7606 27.4383 15.8018 27.4285 15.843C27.4187 15.8779 27.4155 15.9159 27.4122 15.9508C27.4122 16.0332 27.3764 16.0998 27.3535 16.1727C27.3405 16.2139 27.3144 16.2551 27.3079 16.2963C27.2981 16.3755 27.2687 16.4484 27.2492 16.5213C27.2198 16.6386 27.1709 16.7527 27.1774 16.8763C27.1774 16.9302 27.1774 16.9936 27.1481 17.038C27.0666 17.1394 27.06 17.263 27.0209 17.3771C27.0111 17.4088 26.9981 17.4437 27.0079 17.4722C27.0307 17.5673 26.9589 17.637 26.9557 17.7258C26.9002 17.7891 26.897 17.8652 26.8774 17.9445C26.822 18.1536 26.7665 18.3597 26.7111 18.572C26.685 18.6576 26.6654 18.74 26.6654 18.8319C26.6654 18.8731 26.6524 18.9207 26.6328 18.9587C26.6002 19.0221 26.5872 19.0253 26.5741 19.0823L26.5676 19.1045C26.5578 19.1584 26.5676 19.1457 26.5676 19.1933C26.5415 19.2408 26.5741 19.2535 26.5448 19.2883C26.5154 19.3232 26.4959 19.3644 26.4861 19.4056C26.4763 19.4405 26.473 19.4785 26.473 19.5134C26.473 19.5958 26.4372 19.6623 26.4143 19.7352C26.4013 19.7765 26.3752 19.8177 26.372 19.8589C26.3622 19.9381 26.3361 20.011 26.3165 20.0839L26.3067 20.1283L26.2904 20.2107C26.2839 20.2677 26.2806 20.3216 26.2904 20.3787C26.3035 20.4896 26.3524 20.6005 26.4307 20.6798C26.4991 20.7495 26.5872 20.8066 26.6557 20.8668C26.7339 20.9428 26.8481 20.984 26.9622 20.9904H27.1676C27.2003 20.9967 27.2394 20.9999 27.2655 20.984C27.3535 20.9397 27.4416 20.9904 27.5329 20.9714C27.6079 21.0094 27.6861 20.9936 27.7677 20.9936C27.9894 20.9936 28.2079 20.9936 28.4329 20.9936C28.5242 20.9936 28.6123 20.9936 28.7036 20.9714C28.746 20.965 28.7949 20.9619 28.8373 20.9714C28.909 20.9872 28.9156 20.9967 28.9743 20.9967H28.9971C29.0525 20.9967 29.0362 20.9904 29.0851 20.9745C29.1373 20.9872 29.1438 20.9524 29.1862 20.9745C29.2286 20.9936 29.2743 20.9999 29.3167 20.9999C29.3558 20.9999 29.3917 20.9936 29.4275 20.9872C29.5091 20.9682 29.5841 20.9872 29.6623 20.9872C29.708 20.9872 29.7536 21.0031 29.796 20.9967C29.8776 20.9872 29.9558 20.9967 30.0341 20.9967C30.158 20.9967 30.2819 21.0126 30.4059 20.9745C30.458 20.9587 30.5233 20.9428 30.5722 20.9619C30.6928 21.0126 30.8167 20.9872 30.9439 20.9967C30.9765 20.9967 31.0157 21.0031 31.0418 20.9872C31.1298 20.9428 31.2178 20.9936 31.3092 20.9745C31.3842 21.0126 31.4624 20.9967 31.544 20.9967C31.7657 20.9967 31.9842 20.9967 32.2092 20.9967C32.3005 20.9967 32.3886 20.9967 32.4799 20.9745C32.5223 20.9682 32.5712 20.965 32.6136 20.9745C32.6853 20.9904 32.6918 20.9999 32.7505 20.9999H32.8647C32.9462 20.9999 33.031 20.9872 33.1125 20.9714C33.1484 20.965 33.194 20.9333 33.2038 20.9016C33.2397 20.8129 33.2625 20.7241 33.2853 20.6322C33.2984 20.5847 33.2788 20.5403 33.2397 20.5054C33.1353 20.4072 32.9919 20.3723 32.8614 20.347H32.7049C32.4636 20.347 32.4179 20.3692 32.1407 20.366C32.0396 20.366 31.9353 20.385 31.8374 20.3501C31.8309 20.3501 31.8244 20.3501 31.8179 20.3501C31.8081 20.3501 31.7983 20.3501 31.7885 20.3565C31.6613 20.3945 31.5276 20.3565 31.4037 20.4009C31.3776 20.4104 31.345 20.4009 31.3189 20.3913C31.2244 20.3628 31.1298 20.3533 31.0352 20.3692C31.0026 20.3755 30.9667 20.3692 30.9341 20.3692C30.8559 20.3628 30.7776 20.3533 30.6993 20.385C30.6798 20.3913 30.6537 20.3945 30.6341 20.385C30.5461 20.3533 30.4548 20.3692 30.3667 20.3596C30.3504 20.3596 30.3276 20.3533 30.3178 20.366C30.2656 20.4104 30.2135 20.3913 30.1548 20.3818C30.0602 20.3628 29.9624 20.3596 29.8678 20.3913C29.8058 20.4104 29.7471 20.4009 29.6819 20.3913C29.5841 20.3723 29.4797 20.3501 29.3786 20.3533C29.1308 20.3692 29.0982 20.366 29.0786 20.3596C29.0362 20.347 28.9938 20.347 28.9938 20.347H28.9221C28.6808 20.347 28.6351 20.3692 28.3579 20.366C28.2568 20.366 28.1525 20.385 28.0546 20.3501C28.0481 20.3501 28.0416 20.3501 28.0351 20.3501C28.0253 20.3501 28.0155 20.3501 28.0057 20.3565C27.8786 20.3945 27.7448 20.3565 27.6209 20.4009C27.5948 20.4104 27.5622 20.4009 27.5361 20.3913C27.4416 20.3628 27.347 20.3533 27.2524 20.3692C27.2198 20.3755 27.1839 20.3692 27.1513 20.3692C27.1122 20.3692 27.0731 20.3628 27.0339 20.3628H27.0046C27.0046 20.3628 27.0013 20.3628 26.9981 20.366C26.9948 20.3692 26.9916 20.3723 26.985 20.3818C26.9785 20.3882 26.972 20.3913 26.972 20.3818C26.972 20.347 26.9524 20.3501 26.9524 20.3311C26.9524 20.328 26.9557 20.3248 26.9426 20.3248C26.897 20.3311 26.91 20.3089 26.9231 20.2994C26.9263 20.2931 26.9329 20.2931 26.9361 20.2867C26.9426 20.2646 26.9524 20.2424 26.9557 20.2202C26.9655 20.1758 26.972 20.1283 26.9655 20.0807C26.9622 20.0205 26.985 19.9635 27.0111 19.9064C27.0535 19.8177 27.1024 19.7257 27.122 19.6275C27.1676 19.3898 27.1774 19.3612 27.1872 19.3422C27.21 19.3042 27.2198 19.2662 27.2198 19.2662L27.2361 19.1996C27.2948 18.9714 27.2818 18.9238 27.3568 18.6639C27.3829 18.5689 27.3894 18.4674 27.4481 18.3819C27.4514 18.3787 27.4546 18.3692 27.4546 18.3628C27.4546 18.3533 27.4546 18.3438 27.4546 18.3343C27.4481 18.2044 27.5198 18.0871 27.5068 17.9603C27.5035 17.9349 27.5198 17.9064 27.5394 17.8842C27.5916 17.8018 27.6242 17.7162 27.634 17.6243C27.634 17.5926 27.647 17.5578 27.6568 17.5292C27.6829 17.4563 27.7122 17.3866 27.6992 17.3074C27.6992 17.2852 27.6992 17.263 27.7122 17.244C27.7644 17.1679 27.7742 17.0792 27.8068 16.9968C27.8133 16.9809 27.8231 16.9619 27.8133 16.9492C27.7807 16.889 27.8133 16.8446 27.8394 16.7939C27.8818 16.7115 27.9079 16.6196 27.9014 16.5213C27.9014 16.4611 27.9209 16.4041 27.947 16.347C27.9894 16.2583 28.0383 16.1663 28.0612 16.0713C28.1101 15.8335 28.1199 15.805 28.1296 15.7892C28.1525 15.7511 28.1655 15.7131 28.1655 15.7131L28.1851 15.6465C28.1916 15.618 28.2014 15.5895 28.2047 15.5641C28.3449 15.58 28.4851 15.5705 28.6286 15.5736C28.6775 15.5736 28.7329 15.58 28.7721 15.5641C28.9025 15.5198 29.0297 15.5673 29.1601 15.5483C29.271 15.5831 29.3851 15.5673 29.5025 15.5673C29.8254 15.5673 30.145 15.5673 30.4711 15.5673C30.6048 15.5673 30.7352 15.5673 30.8657 15.5451C30.9276 15.5356 30.9994 15.5356 31.0613 15.5451C31.1657 15.561 31.1755 15.5705 31.2602 15.5705H31.2929H31.4233C31.544 15.5705 31.6646 15.5578 31.782 15.5388C31.8342 15.5293 31.8994 15.5007 31.9157 15.469C31.9679 15.3803 32.0005 15.2884 32.0331 15.1996C32.0527 15.1521 32.0233 15.1077 31.9646 15.0728C31.8114 14.9746 31.6027 14.9397 31.4103 14.9175H31.2831H31.1787C30.8265 14.9175 30.7613 14.9429 30.3537 14.9397C30.2069 14.9397 30.0537 14.9587 29.9102 14.927C29.9037 14.927 29.8906 14.927 29.8808 14.927C29.8645 14.927 29.8515 14.927 29.8352 14.9334C29.6493 14.9746 29.4536 14.9334 29.2743 14.9809C29.2384 14.9904 29.1895 14.9809 29.1536 14.9714C29.0167 14.9429 28.8797 14.9334 28.7395 14.9492C28.6905 14.9587 28.6384 14.9492 28.5927 14.9492C28.5079 14.9461 28.4231 14.9461 28.3416 14.9556C28.3547 14.9144 28.371 14.8732 28.3971 14.8351C28.4003 14.832 28.4036 14.8225 28.4036 14.8161C28.4036 14.8066 28.4036 14.7971 28.4036 14.7876C28.3971 14.6576 28.4721 14.5435 28.4623 14.4168C28.459 14.3914 28.4786 14.3629 28.4949 14.3407C28.5471 14.2614 28.5829 14.1759 28.5927 14.0808C28.5927 14.0491 28.609 14.0174 28.6188 13.9857C28.6449 13.9128 28.6775 13.8431 28.6677 13.7638C28.6677 13.7416 28.6677 13.7195 28.684 13.7004C28.7395 13.6275 28.7492 13.5356 28.7819 13.4564C28.7884 13.4405 28.7982 13.4215 28.7916 13.4088C28.7623 13.3486 28.7949 13.3042 28.821 13.2535C28.8666 13.1711 28.896 13.0824 28.8927 12.9841C28.8927 12.9239 28.9156 12.8668 28.9449 12.813C28.9906 12.7274 29.046 12.6386 29.0688 12.5435C29.1243 12.309 29.1373 12.2836 29.1504 12.2678C29.1764 12.2329 29.1895 12.1949 29.1895 12.1949L29.2123 12.1315C29.2873 11.9128 29.2808 11.8653 29.3786 11.6276C29.4145 11.5451 29.4308 11.4722 29.5025 11.4057C29.5091 11.4025 29.5123 11.3962 29.5156 11.3898C29.5221 11.3803 29.5221 11.3708 29.5254 11.3613C29.5547 11.2314 29.6558 11.1299 29.6721 11C29.6721 10.9746 29.6982 10.9493 29.721 10.9334C29.7895 10.8637 29.8417 10.7908 29.871 10.702C29.8776 10.6703 29.9004 10.645 29.9167 10.6165C29.9558 10.5531 30.0047 10.496 30.0113 10.4231C30.0113 10.4041 30.0243 10.3819 30.0406 10.3692C30.1124 10.3217 30.1417 10.2393 30.1971 10.1886C30.2102 10.1791 30.22 10.1664 30.2167 10.1537C30.2069 10.0903 30.2526 10.065 30.2917 10.0396C30.3569 9.9889 30.4189 9.94452 30.4548 9.86846C30.4841 9.82725 30.5298 9.80506 30.5754 9.78288C30.657 9.76386 30.732 9.74484 30.807 9.71632C30.9863 9.64342 31.0189 9.65293 31.0352 9.64976C31.0711 9.6561 31.107 9.6561 31.107 9.6561L31.1657 9.64976C31.3613 9.64025 31.4298 9.61489 31.6222 9.65927C31.694 9.66877 31.7787 9.70047 31.8342 9.75118C31.8342 9.75435 31.8407 9.75752 31.8472 9.75752C31.8538 9.76069 31.8635 9.76386 31.8701 9.76703C31.9777 9.78922 32.0527 9.87163 32.1603 9.91283C32.1831 9.91917 32.1994 9.94452 32.2092 9.96671C32.2549 10.0364 32.2973 10.1093 32.369 10.1569C32.3951 10.1727 32.4146 10.1981 32.4342 10.2203C32.4733 10.2805 32.5092 10.3407 32.581 10.3756C32.6005 10.3851 32.6168 10.4009 32.6201 10.42C32.6397 10.5055 32.7016 10.5658 32.7375 10.6387C32.744 10.6545 32.7538 10.6703 32.7668 10.6735C32.8321 10.6925 32.8418 10.7432 32.8581 10.794C32.8875 10.8764 32.9332 10.9556 33.0016 11.019C33.044 11.0602 33.0669 11.1141 33.0832 11.1711C33.106 11.2631 33.1321 11.3581 33.1745 11.4437C33.2886 11.6497 33.2951 11.6783 33.2951 11.6973C33.2984 11.7385 33.3147 11.7734 33.3147 11.7734L33.3473 11.8526C33.3767 11.9255 33.4158 11.992 33.4582 12.0586C33.4777 12.0871 33.5201 12.1157 33.556 12.1157C33.6506 12.1188 33.7484 12.1125 33.8462 12.1062C33.8984 12.1062 33.9343 12.0713 33.9571 12.0237C34.0191 11.8906 34.0028 11.7448 33.9734 11.6117L33.9408 11.5293C33.9147 11.4786 33.918 11.4944 33.8821 11.4564C33.8723 11.4025 33.8397 11.4089 33.8397 11.3645C33.8397 11.3169 33.8267 11.2726 33.8071 11.2314C33.7908 11.1965 33.7712 11.1648 33.7484 11.1331C33.6962 11.0665 33.6734 10.9905 33.6408 10.9176C33.6245 10.8732 33.6114 10.8288 33.5854 10.7908C33.5364 10.7242 33.5038 10.6482 33.4647 10.5784C33.393 10.4707 33.3473 10.3502 33.2397 10.2646C33.194 10.2266 33.1451 10.1822 33.1288 10.1284C33.0962 9.99524 32.9886 9.90649 32.9136 9.79873C32.8908 9.7702 32.8647 9.7385 32.8321 9.72899C32.7277 9.69096 32.7081 9.5832 32.6136 9.53565C32.5744 9.45324 32.4962 9.40887 32.4212 9.35182C32.2092 9.20919 31.9744 9.07607 31.6907 9.02853C31.6353 9.01585 31.5766 9.00634 31.5211 9C31.4689 9 31.4168 9.00634 31.3646 9.01585C31.3157 9.02219 31.2635 9.02536 31.2146 9.01585C31.1331 9.00634 31.1233 8.99683 31.0548 9.00317H31.0287C30.9635 9.01585 30.9831 9.01585 30.9276 9.0412C30.8624 9.0412 30.8657 9.07607 30.8102 9.06973C30.7548 9.06339 30.6993 9.06339 30.6504 9.08241C30.6048 9.09826 30.5656 9.11727 30.5265 9.13946C30.4385 9.187 30.3569 9.22187 30.2689 9.26307C30.22 9.28843 30.1678 9.31062 30.1287 9.34548C30.0504 9.4057 29.9852 9.46909 29.9134 9.52931C29.8123 9.63391 29.708 9.729 29.6558 9.86212C29.633 9.91917 29.6134 9.98256 29.5645 10.0174C29.4504 10.0998 29.4047 10.2234 29.3362 10.3312C29.3167 10.3597 29.2971 10.3914 29.2971 10.4231C29.2971 10.5214 29.2091 10.5784 29.1862 10.6608C29.1177 10.7084 29.0949 10.7845 29.059 10.851L28.9058 11.1236C28.8503 11.2345 28.7851 11.3581 28.7492 11.4596C28.7134 11.5451 28.6808 11.6307 28.671 11.7258C28.6645 11.7702 28.6514 11.8146 28.6286 11.8526C28.5895 11.9128 28.5764 11.9192 28.5601 11.973L28.5536 11.9952C28.5373 12.0491 28.5471 12.0364 28.5471 12.0871C28.5177 12.1347 28.5471 12.1474 28.5177 12.1822C28.4884 12.2171 28.4655 12.2583 28.4525 12.2995C28.4427 12.3344 28.4362 12.3724 28.4329 12.4073C28.4264 12.4897 28.3873 12.5562 28.3612 12.6291C28.3449 12.6703 28.3188 12.7115 28.3123 12.7527C28.2992 12.832 28.2699 12.9049 28.247 12.9778C28.2144 13.0951 28.159 13.206 28.1623 13.3328C28.1623 13.3866 28.1623 13.45 28.1296 13.4944C28.0481 13.5958 28.0351 13.7195 27.9959 13.8336C27.9829 13.8653 27.9699 13.9001 27.9796 13.9286C27.9992 14.0237 27.9275 14.0935 27.9209 14.1822C27.8655 14.2424 27.859 14.3217 27.8362 14.3977C27.784 14.5847 27.7285 14.7717 27.6764 14.9619C27.6079 14.9936 27.5394 14.9778 27.4611 14.9683C27.3242 14.9492 27.1807 14.9461 27.0437 14.9778C26.9557 14.9968 26.8676 14.9873 26.7731 14.9778C26.6296 14.9587 26.4763 14.9366 26.3296 14.9397C25.9676 14.9556 25.9252 14.9524 25.8958 14.9461C25.8339 14.9334 25.7752 14.9334 25.7752 14.9334H25.6447C25.5273 14.9334 25.4034 14.9429 25.2893 14.9587C25.2371 14.9651 25.1752 14.9936 25.1556 15.0253C25.1099 15.1109 25.0838 15.2028 25.0154 15.2884C24.9828 15.3327 24.9991 15.3771 25.0773 15.4215C25.2534 15.5261 25.4458 15.5641 25.6447 15.5895H25.7719V15.5768Z" fill="#00023C"></path><path d="M25.7719 15.5768C25.8534 15.5768 25.8306 15.5705 25.9024 15.5546C25.9806 15.5673 25.9872 15.5356 26.0491 15.5546C26.1111 15.5736 26.1796 15.58 26.2415 15.58C26.2969 15.58 26.3524 15.5736 26.4046 15.5673C26.522 15.5483 26.6328 15.5673 26.7502 15.5673C26.8155 15.5673 26.8839 15.5831 26.9459 15.5768C27.0633 15.5673 27.1774 15.5768 27.2948 15.5768C27.3633 15.5768 27.4351 15.5768 27.5035 15.5768C27.5035 15.5927 27.5068 15.599 27.5101 15.6307C27.484 15.6782 27.5166 15.6909 27.4872 15.7258C27.4579 15.7606 27.4383 15.8018 27.4285 15.843C27.4187 15.8779 27.4155 15.9159 27.4122 15.9508C27.4122 16.0332 27.3764 16.0998 27.3535 16.1727C27.3405 16.2139 27.3144 16.2551 27.3079 16.2963C27.2981 16.3755 27.2687 16.4484 27.2492 16.5213C27.2198 16.6386 27.1709 16.7527 27.1774 16.8763C27.1774 16.9302 27.1774 16.9936 27.1481 17.038C27.0666 17.1394 27.06 17.263 27.0209 17.3771C27.0111 17.4088 26.9981 17.4437 27.0079 17.4722C27.0307 17.5673 26.9589 17.637 26.9557 17.7258C26.9002 17.7891 26.897 17.8652 26.8774 17.9445C26.822 18.1536 26.7665 18.3597 26.7111 18.572C26.685 18.6576 26.6654 18.74 26.6654 18.8319C26.6654 18.8731 26.6524 18.9207 26.6328 18.9587C26.6002 19.0221 26.5872 19.0253 26.5741 19.0823L26.5676 19.1045C26.5578 19.1584 26.5676 19.1457 26.5676 19.1933C26.5415 19.2408 26.5741 19.2535 26.5448 19.2883C26.5154 19.3232 26.4959 19.3644 26.4861 19.4056C26.4763 19.4405 26.473 19.4785 26.473 19.5134C26.473 19.5958 26.4372 19.6623 26.4143 19.7352C26.4013 19.7765 26.3752 19.8177 26.372 19.8589C26.3622 19.9381 26.3361 20.011 26.3165 20.0839L26.3067 20.1283L26.2904 20.2107C26.2839 20.2677 26.2806 20.3216 26.2904 20.3787C26.3035 20.4896 26.3524 20.6005 26.4307 20.6798C26.4991 20.7495 26.5872 20.8066 26.6557 20.8668C26.7339 20.9428 26.8481 20.984 26.9622 20.9904H27.1676C27.2003 20.9967 27.2394 20.9999 27.2655 20.984C27.3535 20.9397 27.4416 20.9904 27.5329 20.9714C27.6079 21.0094 27.6861 20.9936 27.7677 20.9936C27.9894 20.9936 28.2079 20.9936 28.4329 20.9936C28.5242 20.9936 28.6123 20.9936 28.7036 20.9714C28.746 20.965 28.7949 20.9619 28.8373 20.9714C28.909 20.9872 28.9156 20.9967 28.9743 20.9967H28.9971C29.0525 20.9967 29.0362 20.9904 29.0851 20.9745C29.1373 20.9872 29.1438 20.9524 29.1862 20.9745C29.2286 20.9936 29.2743 20.9999 29.3167 20.9999C29.3558 20.9999 29.3917 20.9936 29.4275 20.9872C29.5091 20.9682 29.5841 20.9872 29.6623 20.9872C29.708 20.9872 29.7536 21.0031 29.796 20.9967C29.8776 20.9872 29.9558 20.9967 30.0341 20.9967C30.158 20.9967 30.2819 21.0126 30.4059 20.9745C30.458 20.9587 30.5233 20.9428 30.5722 20.9619C30.6928 21.0126 30.8167 20.9872 30.9439 20.9967C30.9765 20.9967 31.0157 21.0031 31.0418 20.9872C31.1298 20.9428 31.2178 20.9936 31.3092 20.9745C31.3842 21.0126 31.4624 20.9967 31.544 20.9967C31.7657 20.9967 31.9842 20.9967 32.2092 20.9967C32.3005 20.9967 32.3886 20.9967 32.4799 20.9745C32.5223 20.9682 32.5712 20.965 32.6136 20.9745C32.6853 20.9904 32.6918 20.9999 32.7505 20.9999H32.8647C32.9462 20.9999 33.031 20.9872 33.1125 20.9714C33.1484 20.965 33.194 20.9333 33.2038 20.9016C33.2397 20.8129 33.2625 20.7241 33.2853 20.6322C33.2984 20.5847 33.2788 20.5403 33.2397 20.5054C33.1353 20.4072 32.9919 20.3723 32.8614 20.347H32.7049C32.4636 20.347 32.4179 20.3692 32.1407 20.366C32.0396 20.366 31.9353 20.385 31.8374 20.3501C31.8309 20.3501 31.8244 20.3501 31.8179 20.3501C31.8081 20.3501 31.7983 20.3501 31.7885 20.3565C31.6613 20.3945 31.5276 20.3565 31.4037 20.4009C31.3776 20.4104 31.345 20.4009 31.3189 20.3913C31.2244 20.3628 31.1298 20.3533 31.0352 20.3692C31.0026 20.3755 30.9667 20.3692 30.9341 20.3692C30.8559 20.3628 30.7776 20.3533 30.6993 20.385C30.6798 20.3913 30.6537 20.3945 30.6341 20.385C30.5461 20.3533 30.4548 20.3692 30.3667 20.3596C30.3504 20.3596 30.3276 20.3533 30.3178 20.366C30.2656 20.4104 30.2135 20.3913 30.1548 20.3818C30.0602 20.3628 29.9624 20.3596 29.8678 20.3913C29.8058 20.4104 29.7471 20.4009 29.6819 20.3913C29.5841 20.3723 29.4797 20.3501 29.3786 20.3533C29.1308 20.3692 29.0982 20.366 29.0786 20.3596C29.0362 20.347 28.9938 20.347 28.9938 20.347H28.9221C28.6808 20.347 28.6351 20.3692 28.3579 20.366C28.2568 20.366 28.1525 20.385 28.0546 20.3501C28.0481 20.3501 28.0416 20.3501 28.0351 20.3501C28.0253 20.3501 28.0155 20.3501 28.0057 20.3565C27.8786 20.3945 27.7448 20.3565 27.6209 20.4009C27.5948 20.4104 27.5622 20.4009 27.5361 20.3913C27.4416 20.3628 27.347 20.3533 27.2524 20.3692C27.2198 20.3755 27.1839 20.3692 27.1513 20.3692C27.1122 20.3692 27.0731 20.3628 27.0339 20.3628H27.0046C27.0046 20.3628 27.0013 20.3628 26.9981 20.366C26.9948 20.3692 26.9916 20.3723 26.985 20.3818C26.9785 20.3882 26.972 20.3913 26.972 20.3818C26.972 20.347 26.9524 20.3501 26.9524 20.3311C26.9524 20.328 26.9557 20.3248 26.9426 20.3248C26.897 20.3311 26.91 20.3089 26.9231 20.2994C26.9263 20.2931 26.9329 20.2931 26.9361 20.2867C26.9426 20.2646 26.9524 20.2424 26.9557 20.2202C26.9655 20.1758 26.972 20.1283 26.9655 20.0807C26.9622 20.0205 26.985 19.9635 27.0111 19.9064C27.0535 19.8177 27.1024 19.7257 27.122 19.6275C27.1676 19.3898 27.1774 19.3612 27.1872 19.3422C27.21 19.3042 27.2198 19.2662 27.2198 19.2662L27.2361 19.1996C27.2948 18.9714 27.2818 18.9238 27.3568 18.6639C27.3829 18.5689 27.3894 18.4674 27.4481 18.3819C27.4514 18.3787 27.4546 18.3692 27.4546 18.3628C27.4546 18.3533 27.4546 18.3438 27.4546 18.3343C27.4481 18.2044 27.5198 18.0871 27.5068 17.9603C27.5035 17.9349 27.5198 17.9064 27.5394 17.8842C27.5916 17.8018 27.6242 17.7162 27.634 17.6243C27.634 17.5926 27.647 17.5578 27.6568 17.5292C27.6829 17.4563 27.7122 17.3866 27.6992 17.3074C27.6992 17.2852 27.6992 17.263 27.7122 17.244C27.7644 17.1679 27.7742 17.0792 27.8068 16.9968C27.8133 16.9809 27.8231 16.9619 27.8133 16.9492C27.7807 16.889 27.8133 16.8446 27.8394 16.7939C27.8818 16.7115 27.9079 16.6196 27.9014 16.5213C27.9014 16.4611 27.9209 16.4041 27.947 16.347C27.9894 16.2583 28.0383 16.1663 28.0612 16.0713C28.1101 15.8335 28.1199 15.805 28.1296 15.7892C28.1525 15.7511 28.1655 15.7131 28.1655 15.7131L28.1851 15.6465C28.1916 15.618 28.2014 15.5895 28.2047 15.5641C28.3449 15.58 28.4851 15.5705 28.6286 15.5736C28.6775 15.5736 28.7329 15.58 28.7721 15.5641C28.9025 15.5198 29.0297 15.5673 29.1601 15.5483C29.271 15.5831 29.3851 15.5673 29.5025 15.5673C29.8254 15.5673 30.145 15.5673 30.4711 15.5673C30.6048 15.5673 30.7352 15.5673 30.8657 15.5451C30.9276 15.5356 30.9994 15.5356 31.0613 15.5451C31.1657 15.561 31.1755 15.5705 31.2602 15.5705H31.2929H31.4233C31.544 15.5705 31.6646 15.5578 31.782 15.5388C31.8342 15.5293 31.8994 15.5007 31.9157 15.469C31.9679 15.3803 32.0005 15.2884 32.0331 15.1996C32.0527 15.1521 32.0233 15.1077 31.9646 15.0728C31.8114 14.9746 31.6027 14.9397 31.4103 14.9175H31.2831H31.1787C30.8265 14.9175 30.7613 14.9429 30.3537 14.9397C30.2069 14.9397 30.0537 14.9587 29.9102 14.927C29.9037 14.927 29.8906 14.927 29.8808 14.927C29.8645 14.927 29.8515 14.927 29.8352 14.9334C29.6493 14.9746 29.4536 14.9334 29.2743 14.9809C29.2384 14.9904 29.1895 14.9809 29.1536 14.9714C29.0167 14.9429 28.8797 14.9334 28.7395 14.9492C28.6905 14.9587 28.6384 14.9492 28.5927 14.9492C28.5079 14.9461 28.4231 14.9461 28.3416 14.9556C28.3547 14.9144 28.371 14.8732 28.3971 14.8351C28.4003 14.832 28.4036 14.8225 28.4036 14.8161C28.4036 14.8066 28.4036 14.7971 28.4036 14.7876C28.3971 14.6576 28.4721 14.5435 28.4623 14.4168C28.459 14.3914 28.4786 14.3629 28.4949 14.3407C28.5471 14.2614 28.5829 14.1759 28.5927 14.0808C28.5927 14.0491 28.609 14.0174 28.6188 13.9857C28.6449 13.9128 28.6775 13.8431 28.6677 13.7638C28.6677 13.7416 28.6677 13.7195 28.684 13.7004C28.7395 13.6275 28.7492 13.5356 28.7819 13.4564C28.7884 13.4405 28.7982 13.4215 28.7916 13.4088C28.7623 13.3486 28.7949 13.3042 28.821 13.2535C28.8666 13.1711 28.896 13.0824 28.8927 12.9841C28.8927 12.9239 28.9156 12.8668 28.9449 12.813C28.9906 12.7274 29.046 12.6386 29.0688 12.5435C29.1243 12.309 29.1373 12.2836 29.1504 12.2678C29.1764 12.2329 29.1895 12.1949 29.1895 12.1949L29.2123 12.1315C29.2873 11.9128 29.2808 11.8653 29.3786 11.6276C29.4145 11.5451 29.4308 11.4722 29.5025 11.4057C29.5091 11.4025 29.5123 11.3962 29.5156 11.3898C29.5221 11.3803 29.5221 11.3708 29.5254 11.3613C29.5547 11.2314 29.6558 11.1299 29.6721 11C29.6721 10.9746 29.6982 10.9493 29.721 10.9334C29.7895 10.8637 29.8417 10.7908 29.871 10.702C29.8776 10.6703 29.9004 10.645 29.9167 10.6165C29.9558 10.5531 30.0047 10.496 30.0113 10.4231C30.0113 10.4041 30.0243 10.3819 30.0406 10.3692C30.1124 10.3217 30.1417 10.2393 30.1971 10.1886C30.2102 10.1791 30.22 10.1664 30.2167 10.1537C30.2069 10.0903 30.2526 10.065 30.2917 10.0396C30.3569 9.9889 30.4189 9.94452 30.4548 9.86846C30.4841 9.82725 30.5298 9.80506 30.5754 9.78288C30.657 9.76386 30.732 9.74484 30.807 9.71632C30.9863 9.64342 31.0189 9.65293 31.0352 9.64976C31.0711 9.6561 31.107 9.6561 31.107 9.6561L31.1657 9.64976C31.3613 9.64025 31.4298 9.61489 31.6222 9.65927C31.694 9.66877 31.7787 9.70047 31.8342 9.75118C31.8342 9.75435 31.8407 9.75752 31.8472 9.75752C31.8538 9.76069 31.8635 9.76386 31.8701 9.76703C31.9777 9.78922 32.0527 9.87163 32.1603 9.91283C32.1831 9.91917 32.1994 9.94452 32.2092 9.96671C32.2549 10.0364 32.2973 10.1093 32.369 10.1569C32.3951 10.1727 32.4146 10.1981 32.4342 10.2203C32.4733 10.2805 32.5092 10.3407 32.581 10.3756C32.6005 10.3851 32.6168 10.4009 32.6201 10.42C32.6397 10.5055 32.7016 10.5658 32.7375 10.6387C32.744 10.6545 32.7538 10.6703 32.7668 10.6735C32.8321 10.6925 32.8418 10.7432 32.8581 10.794C32.8875 10.8764 32.9332 10.9556 33.0016 11.019C33.044 11.0602 33.0669 11.1141 33.0832 11.1711C33.106 11.2631 33.1321 11.3581 33.1745 11.4437C33.2886 11.6497 33.2951 11.6783 33.2951 11.6973C33.2984 11.7385 33.3147 11.7734 33.3147 11.7734L33.3473 11.8526C33.3767 11.9255 33.4158 11.992 33.4582 12.0586C33.4777 12.0871 33.5201 12.1157 33.556 12.1157C33.6506 12.1188 33.7484 12.1125 33.8462 12.1062C33.8984 12.1062 33.9343 12.0713 33.9571 12.0237C34.0191 11.8906 34.0028 11.7448 33.9734 11.6117L33.9408 11.5293C33.9147 11.4786 33.918 11.4944 33.8821 11.4564C33.8723 11.4025 33.8397 11.4089 33.8397 11.3645C33.8397 11.3169 33.8267 11.2726 33.8071 11.2314C33.7908 11.1965 33.7712 11.1648 33.7484 11.1331C33.6962 11.0665 33.6734 10.9905 33.6408 10.9176C33.6245 10.8732 33.6114 10.8288 33.5854 10.7908C33.5364 10.7242 33.5038 10.6482 33.4647 10.5784C33.393 10.4707 33.3473 10.3502 33.2397 10.2646C33.194 10.2266 33.1451 10.1822 33.1288 10.1284C33.0962 9.99524 32.9886 9.90649 32.9136 9.79873C32.8908 9.7702 32.8647 9.7385 32.8321 9.72899C32.7277 9.69096 32.7081 9.5832 32.6136 9.53565C32.5744 9.45324 32.4962 9.40887 32.4212 9.35182C32.2092 9.20919 31.9744 9.07607 31.6907 9.02853C31.6353 9.01585 31.5766 9.00634 31.5211 9C31.4689 9 31.4168 9.00634 31.3646 9.01585C31.3157 9.02219 31.2635 9.02536 31.2146 9.01585C31.1331 9.00634 31.1233 8.99683 31.0548 9.00317H31.0287C30.9635 9.01585 30.9831 9.01585 30.9276 9.0412C30.8624 9.0412 30.8657 9.07607 30.8102 9.06973C30.7548 9.06339 30.6993 9.06339 30.6504 9.08241C30.6048 9.09826 30.5656 9.11727 30.5265 9.13946C30.4385 9.187 30.3569 9.22187 30.2689 9.26307C30.22 9.28843 30.1678 9.31062 30.1287 9.34548C30.0504 9.4057 29.9852 9.46909 29.9134 9.52931C29.8123 9.63391 29.708 9.729 29.6558 9.86212C29.633 9.91917 29.6134 9.98256 29.5645 10.0174C29.4504 10.0998 29.4047 10.2234 29.3362 10.3312C29.3167 10.3597 29.2971 10.3914 29.2971 10.4231C29.2971 10.5214 29.2091 10.5784 29.1862 10.6608C29.1177 10.7084 29.0949 10.7845 29.059 10.851L28.9058 11.1236C28.8503 11.2345 28.7851 11.3581 28.7492 11.4596C28.7134 11.5451 28.6808 11.6307 28.671 11.7258C28.6645 11.7702 28.6514 11.8146 28.6286 11.8526C28.5895 11.9128 28.5764 11.9192 28.5601 11.973L28.5536 11.9952C28.5373 12.0491 28.5471 12.0364 28.5471 12.0871C28.5177 12.1347 28.5471 12.1474 28.5177 12.1822C28.4884 12.2171 28.4655 12.2583 28.4525 12.2995C28.4427 12.3344 28.4362 12.3724 28.4329 12.4073C28.4264 12.4897 28.3873 12.5562 28.3612 12.6291C28.3449 12.6703 28.3188 12.7115 28.3123 12.7527C28.2992 12.832 28.2699 12.9049 28.247 12.9778C28.2144 13.0951 28.159 13.206 28.1623 13.3328C28.1623 13.3866 28.1623 13.45 28.1296 13.4944C28.0481 13.5958 28.0351 13.7195 27.9959 13.8336C27.9829 13.8653 27.9699 13.9001 27.9796 13.9286C27.9992 14.0237 27.9275 14.0935 27.9209 14.1822C27.8655 14.2424 27.859 14.3217 27.8362 14.3977C27.784 14.5847 27.7285 14.7717 27.6764 14.9619C27.6079 14.9936 27.5394 14.9778 27.4611 14.9683C27.3242 14.9492 27.1807 14.9461 27.0437 14.9778C26.9557 14.9968 26.8676 14.9873 26.7731 14.9778C26.6296 14.9587 26.4763 14.9366 26.3296 14.9397C25.9676 14.9556 25.9252 14.9524 25.8958 14.9461C25.8339 14.9334 25.7752 14.9334 25.7752 14.9334H25.6447C25.5273 14.9334 25.4034 14.9429 25.2893 14.9587C25.2371 14.9651 25.1752 14.9936 25.1556 15.0253C25.1099 15.1109 25.0838 15.2028 25.0154 15.2884C24.9828 15.3327 24.9991 15.3771 25.0773 15.4215C25.2534 15.5261 25.4458 15.5641 25.6447 15.5895H25.7719V15.5768Z" stroke="#000433" stroke-width="0.8" mask="url(#path-4-outside-1_1270_25094)"></path><path d="M19.9995 26L17.9995 28" stroke="#000433" stroke-width="3"></path></svg>